<?xml version="1.0" encoding="UTF-8"?>
<svg width="950px" height="149px" viewBox="0 0 950 149" version="1.1"
    xmlns="http://www.w3.org/2000/svg"
    xmlns:xlink="http://www.w3.org/1999/xlink">
    <style>
    #arrow_down {
        stroke-dasharray: 100;
        animation: dashdraw 4s linear infinite;
    }
    @keyframes dashdraw {
        to {
            stroke-dashoffset: -200;
        }
    }
    
    #arrow_up {
        stroke-dasharray: 100;
        animation: dashdraw 4s linear infinite;
    }
    @keyframes dashdraw {
        to {
            stroke-dashoffset: -200;
        }
    }
    </style>
    <title>feedback</title>
    <g id="feedback" stroke="none" stroke-width="1" fill="none" fill-rule="evenodd">
        <path d="M200.617869,125 L200.617869,82.940381 L242.031182,82.940381 L242.031182,65.1918184 L200.617869,65.1918184 L200.617869,40.9304779 L246.505609,40.9304779 L246.505609,23.1819153 L179.090901,23.1819153 L179.090901,125 L200.617869,125 Z M329.779755,125 L329.779755,107.251437 L282.499971,107.251437 L282.499971,82.940381 L326.051066,82.940381 L326.051066,65.1918184 L282.499971,65.1918184 L282.499971,40.9304779 L329.580892,40.9304779 L329.580892,23.1819153 L260.973003,23.1819153 L260.973003,125 L329.779755,125 Z M415.539699,125 L415.539699,107.251437 L368.259914,107.251437 L368.259914,82.940381 L411.811009,82.940381 L411.811009,65.1918184 L368.259914,65.1918184 L368.259914,40.9304779 L415.340835,40.9304779 L415.340835,23.1819153 L346.732946,23.1819153 L346.732946,125 L415.539699,125 Z M468.586605,125 C499.609303,125 518.401898,105.809677 518.401898,73.9915259 C518.401898,42.2728062 499.609303,23.1819153 468.8849,23.1819153 L432.492889,23.1819153 L432.492889,125 L468.586605,125 Z M467.691719,106.555415 L454.019857,106.555415 L454.019857,41.6265 L467.741435,41.6265 C486.832326,41.6265 496.924646,51.3708089 496.924646,73.9915259 C496.924646,96.7116747 486.832326,106.555415 467.691719,106.555415 Z M577.81245,125 C600.681746,125 612.862133,113.068193 612.862133,96.8608223 C612.862133,81.7969162 602.073791,72.6989135 590.489995,72.152039 L590.489995,71.1577218 C601.079473,68.7713604 608.884864,61.2642653 608.884864,49.2827427 C608.884864,34.0199731 597.549647,23.1819153 575.078078,23.1819153 L534.311071,23.1819153 L534.311071,125 L577.81245,125 Z M571.796831,65.7884087 L555.838039,65.7884087 L555.838039,40.5824669 L572.194558,40.5824669 C581.740003,40.5824669 587.159032,45.5043372 587.159032,52.8622847 C587.159032,60.9162543 580.596538,65.7884087 571.796831,65.7884087 Z M573.387738,107.400585 L555.838039,107.400585 L555.838039,80.3551562 L573.884897,80.3551562 C584.225796,80.3551562 590.639142,86.3210596 590.639142,94.7230402 C590.639142,102.379283 585.418977,107.400585 573.387738,107.400585 Z M644.382077,125 L651.938888,101.782693 L688.67891,101.782693 L696.235721,125 L719.303881,125 L684.204482,23.1819153 L656.463031,23.1819153 L621.313917,125 L644.382077,125 Z M683.259881,84.9787313 L657.407633,84.9787313 L669.93603,46.4489385 L670.731484,46.4489385 L683.259881,84.9787313 Z M772.400516,126.392044 C798.501344,126.392044 814.261272,109.041208 816.597917,90.2983285 L794.82237,90.1988968 C792.78402,101.086671 784.232891,107.350869 772.748527,107.350869 C757.286894,107.350869 746.796847,95.8665051 746.796847,74.0909576 C746.796847,52.9120006 757.137747,40.8310462 772.897675,40.8310462 C784.680334,40.8310462 793.181746,47.6421192 794.82237,58.8281881 L816.597917,58.8281881 C813.764113,35.3125855 795.965835,21.7898712 772.400516,21.7898712 C745.504235,21.7898712 724.971584,40.7813303 724.971584,74.0909576 C724.971584,107.301153 745.156224,126.392044 772.400516,126.392044 Z M853.586619,125 L853.586619,96.0653685 L864.176097,83.1392445 L892.066696,125 L917.819512,125 L879.588014,68.7713604 L917.372069,23.1819153 L891.569537,23.1819153 L854.928947,68.0753384 L853.586619,68.0753384 L853.586619,23.1819153 L832.059651,23.1819153 L832.059651,125 L853.586619,125 Z" id="FEEDBACK" fill="#1E88E5" fill-rule="nonzero"></path>
        <path d="M41,9 C24.4314575,9 11,22.4314575 11,39 C11,55.5685425 24.4314575,69 41,69 C57.5685425,69 71,55.5685425 71,39 C71,31.0435053 67.8392948,23.4128879 62.2132034,17.7867966 C56.5871121,12.1607052 48.9564947,9 41,9 Z M29.15,60 C30.0795205,54.1764542 35.1027384,49.891428 41,49.891428 C46.8972616,49.891428 51.9204795,54.1764542 52.85,60 C45.5089987,64.2028987 36.4910013,64.2028987 29.15,60 L29.15,60 Z M41,43.65 C38.3305492,43.65 35.9239497,42.0419616 34.9023951,39.5757107 C33.8808405,37.1094597 34.4455085,34.270682 36.3330952,32.3830952 C38.220682,30.4955085 41.0594597,29.9308405 43.5257107,30.9523951 C45.9919616,31.9739497 47.6,34.3805492 47.6,37.05 C47.5184707,40.6363688 44.5872952,43.5009266 41,43.5 L41,43.65 Z M58.1,56.1 C56.6982802,51.8390773 53.7561595,48.2550394 49.85,46.05 C53.4883748,42.459777 54.5972256,37.0271935 52.656877,32.298291 C50.7165285,27.5693884 46.1115039,24.4813044 40.9999981,24.4813044 C35.8884961,24.4813044 31.2834715,27.5693884 29.343123,32.298291 C27.4027744,37.0271935 28.5116252,42.459777 32.15,46.05 C28.2438405,48.2550394 25.3017198,51.8390773 23.9,56.1 C14.6330037,46.6899996 14.7102285,31.5609574 24.0728045,22.2460499 C33.4353804,12.9311425 48.5646196,12.9311425 57.9271955,22.2460499 C67.2897715,31.5609574 67.3669963,46.6899996 58.1,56.1 L58.1,56.1 Z" id="Shape" fill="#1E88E5" fill-rule="nonzero"></path>
        <path d="M112,81 C95.4314575,81 82,94.4314575 82,111 C82,127.568542 95.4314575,141 112,141 C128.568542,141 142,127.568542 142,111 C142,103.043505 138.839295,95.4128879 133.213203,89.7867966 C127.587112,84.1607052 119.956495,81 112,81 Z M100.15,131.85 C101.07952,126.026454 106.102738,121.741428 112,121.741428 C117.897262,121.741428 122.92048,126.026454 123.85,131.85 C116.508999,136.052899 107.491001,136.052899 100.15,131.85 L100.15,131.85 Z M112,115.5 C108.354921,115.5 105.4,112.545079 105.4,108.9 C105.4,105.254921 108.354921,102.3 112,102.3 C115.645079,102.3 118.6,105.254921 118.6,108.9 C118.6,112.545079 115.645079,115.5 112,115.5 L112,115.5 Z M129.1,127.95 C127.69828,123.689077 124.756159,120.105039 120.85,117.9 C124.488375,114.309777 125.597226,108.877193 123.656877,104.148291 C121.716528,99.4193884 117.111504,96.3313044 111.999998,96.3313044 C106.888496,96.3313044 102.283472,99.4193884 100.343123,104.148291 C98.4027744,108.877193 99.5116252,114.309777 103.15,117.9 C99.2438405,120.105039 96.3017198,123.689077 94.9,127.95 C85.6330037,118.54 85.7102285,103.410957 95.0728045,94.0960499 C104.43538,84.7811425 119.56462,84.7811425 128.927196,94.0960499 C138.289771,103.410957 138.366996,118.54 129.1,127.95 L129.1,127.95 Z" id="Shape" fill="#1E88E5" fill-rule="nonzero"></path>
        <g id="arrow_down" transform="translate(79.000000, 21.000000)" stroke="#1E88E5" stroke-width="7">
            <polyline id="Path-3" points="0 2.84217094e-14 38.7751566 2.84217094e-14 38.7751566 47.2140948"></polyline>
            <polyline id="Path-5" transform="translate(38.815013, 38.724733) rotate(-180.000000) translate(-38.815013, -38.724733) " points="22 47.2353714 38.8150134 30.2140948 55.6300268 47.2353714"></polyline>
        </g>
        <g id="arrow_up" transform="translate(43.000000, 107.000000) rotate(-180.000000) translate(-43.000000, -107.000000) translate(15.000000, 83.000000)" stroke="#1E88E5" stroke-width="7">
            <polyline id="Path-3" points="0 2.84217094e-14 38.7751566 2.84217094e-14 38.7751566 47.2140948"></polyline>
            <polyline id="Path-5" transform="translate(38.815013, 38.724733) rotate(-180.000000) translate(-38.815013, -38.724733) " points="22 47.2353714 38.8150134 30.2140948 55.6300268 47.2353714"></polyline>
        </g>
        <path d="" id="Path-4" stroke="#979797"></path>
    </g>
</svg>